# xmcd
#
# Track frame offsets: 
#        150
#        52385
#        114801
#        156137
#        191326
#        210708
#        232593
#        261865
#
# Disc length: 4035 seconds
#
# Revision: 1
# Processed by: cddbd v1.5.2PL0 Copyright (c) Steve Scherf et al.
# Submitted via: ExactAudioCopy v1.1
#
DISCID=630fc108
DTITLE=Dexter Gordon - The Chase And The Steeplechase - Daddy Plays Th
DTITLE=e Horn
DYEAR=1956
DGENRE=Jazz
TTITLE0=The Chase (mono)
TTITLE1=The Steeplechase (mono)
TTITLE2=Daddy Plays The Horn (mono)
TTITLE3=Confirmation (mono)
TTITLE4=Darn That Dream (mono)
TTITLE5=Number Four (mono)
TTITLE6=Autumn In New York (mono)
TTITLE7=You Can Depend On Me (mono)
EXTD=YEAR: 1956
EXTT0=
EXTT1=
EXTT2=
EXTT3=
EXTT4=
EXTT5=
EXTT6=
EXTT7=
PLAYORDER=
